<svg 
  style="enable-background:new 0 0 50 50" 
  viewBox="0 0 50 50" 
  xml:space="preserve" 
  xmlns="http://www.w3.org/2000/svg">
  <path d="M44 19.09V1h-2v18.09c-2.833.478-5 2.942-5 5.91s2.167 5.431 5 5.91V49h2V30.91c2.833-.478 5-2.942 5-5.91s-2.167-5.431-5-5.91zM43 29c-2.206 0-4-1.794-4-4s1.794-4 4-4 4 1.794 4 4-1.794 4-4 4zM6 1v7.09c-2.833.479-5 2.943-5 5.91s2.167 5.431 5 5.91V49h2V19.91c2.833-.478 5-2.942 5-5.91s-2.167-5.431-5-5.91V1H6zm5 13c0 2.206-1.794 4-4 4s-4-1.794-4-4 1.794-4 4-4 4 1.794 4 4zM24 1v30.09c-2.833.478-5 2.942-5 5.91s2.167 5.431 5 5.91V49h2v-6.09c2.833-.478 5-2.942 5-5.91s-2.167-5.431-5-5.91V1h-2zm5 36c0 2.206-1.794 4-4 4s-4-1.794-4-4 1.794-4 4-4 4 1.794 4 4z"/>
</svg>