<svg 
	viewBox="0 0 45 40"
	xml:space="preserve"
	xmlns="http://www.w3.org/2000/svg">
  <path clip-rule="evenodd" d="M44.9 32.971c0 .011.006.019.006.029 0 .005-.003.01-.003.016.001.005.003.01.003.016a1 1 0 0 1-1 1C43.921 34.031 35 34 35 34a1 1 0 1 1 0-2h7.946c.019-.334.054-.662.054-1 0-10.493-8.507-19-19-19S5 20.507 5 31c0 .338.035.666.053 1H13a1 1 0 1 1 0 2l-8.906.031a1 1 0 0 1-1-1c0-.006.002-.011.003-.016 0-.006-.003-.011-.003-.016 0-.011.006-.019.006-.028A21.06 21.06 0 0 1 3 31c0-11.599 9.402-21 21-21s21 9.401 21 21c0 .665-.039 1.321-.1 1.971zM17.523 21.128a1.052 1.052 0 0 1 1.189.133l-.05-.083c8.774 6.42 10.577 9.373 10.61 9.428 1.433 2.357.581 5.371-1.899 6.731s-5.653.553-7.085-1.804c-.035-.053-1.824-3.014-3.291-13.442l.051.082a.948.948 0 0 1 .475-1.045zm4.563 13.421c.555.911 1.589 1.478 2.699 1.478a3.23 3.23 0 0 0 1.552-.397 2.959 2.959 0 0 0 1.45-1.794 2.8 2.8 0 0 0-.303-2.232c-.017-.025-1.572-2.386-8.062-7.348 1.281 7.815 2.653 10.273 2.664 10.293z" fill-rule="evenodd"/>
</svg>