<svg 
	xmlns="http://www.w3.org/2000/svg">
  <path d="m29.707 19.293-3-3a1 1 0 0 0-1.414 0L16 25.586V30h4.414l9.293-9.293a1 1 0 0 0 0-1.414ZM19.586 28H18v-1.586l5-5L24.586 23ZM26 21.586 24.414 20 26 18.414 27.586 20ZM17 15h-6a3 3 0 0 0-3 3v1h2v-1a1 1 0 0 1 1-1h6a1 1 0 0 1 1 1v1h2v-1a3 3 0 0 0-3-3Zm-3-1a4 4 0 1 0-4-4 4 4 0 0 0 4 4Zm0-6a2 2 0 1 1-2 2 2 2 0 0 1 2-2Z"/>
  <path d="M12 30H6a2.002 2.002 0 0 1-2-2V4a2.002 2.002 0 0 1 2-2h16a2.002 2.002 0 0 1 2 2v10h-2V4H6v24h6Z"/>
  <path data-name="&lt;Transparent Rectangle&gt;" style="fill:none" d="M0 0h32v32H0z"/>
</svg>