<svg 
	viewBox="0 0 64 64" 
	xmlns="http://www.w3.org/2000/svg">
  <path d="M30.507 29.509a17.021 17.021 0 0 1 5.854-3.824l8.882-10.303a3.612 3.612 0 0 0 .257-.377h-9.88l-5.3 14.71c.065-.067.12-.14.187-.206Zm15.481-17.004a3.612 3.612 0 0 0-.51-1.355L41.15 4.354a3.402 3.402 0 0 0-2.87-1.574h-8.76l5.925 9.726Zm-43.44 2.5a3.628 3.628 0 0 0 .257.377L19.476 34.8l-7.133-19.795ZM26.594 2.78h-6.898l-4.516 9.725h9.98a1.25 1.25 0 0 1 0 2.5H15l8.182 22.706a.85.85 0 0 0 1.6 0l8.582-23.816Zm-9.654 0H9.768a3.403 3.403 0 0 0-2.87 1.574L2.57 11.15a3.609 3.609 0 0 0-.51 1.356h10.363Zm44.528 53.889-6.95-7.069a14.404 14.404 0 1 0-4.495 4.274l7.064 7.176a3.098 3.098 0 0 0 4.38-4.38Zm-18.884-7.665a7.419 7.419 0 1 1 7.418-7.42 7.419 7.419 0 0 1-7.418 7.42Z"/>
</svg>