<svg 
	version="1.0" 
	xmlns="http://www.w3.org/2000/svg" 
	viewBox="0 0 512 512">
  <path 
		d="M247.7 32c-9.9 2.5-19.2 10.5-26.3 22.5-2.2 3.9-33 56.9-68.4 118C48.5 353 24 395 18 404.5c-11.8 18.7-15.5 29-14.8 41.8.3 5 1.1 9.5 2.2 11.5 2.6 5.1 9.3 11.2 15.1 13.8l5.2 2.4 235.5-.2 235.5-.3 3.7-2.8c2-1.6 4.9-4.7 6.4-7 2.5-3.7 2.7-4.8 2.7-14.1 0-12.1-2-18.8-9.7-32.2-18.9-33.1-203.6-347.7-213.1-363-11.3-18.3-24.7-25.9-39-22.4zm20.9 147c6.1 2.6 11 7.5 14.4 14.2l3 6.1V252c0 59 .1 58.2-7.1 66.4-8.9 10.1-23.3 13.1-35.1 7.3-6.1-3-10.5-7.4-14-14-2.3-4.2-2.3-4.4-2.6-57.3-.3-52.4-.2-53.2 1.9-58.9 5.8-15.6 24-23.2 39.5-16.5zm-.6 180.1c14.8 6.5 21.7 24.9 14.6 39.3-6.4 13.2-21.9 19.7-35.7 15.1-7.4-2.5-15.9-11-18.4-18.4-8-24.1 16.3-46.2 39.5-36z"/>
</svg>