<svg 
    xmlns="http://www.w3.org/2000/svg" 
    viewBox="0 0 122.88 122.88" 
    style="enable-background:new 0 0 122.88 122.88" 
    xml:space="preserve">
    <path 
        d="M109.72 61.44v-.01h.02c0-13.31-5.42-25.38-14.17-34.13-8.75-8.74-20.81-14.16-34.1-14.16v.02h-.04v-.02c-13.3 0-25.38 5.42-34.13 14.17-8.74 8.75-14.16 20.81-14.16 34.11h.02v.04h-.02c0 8.88 2.41 17.22 6.59 24.36 8.38 14.31 23.92 23.92 41.68 23.93v-.02h.04v.02c13.31 0 25.38-5.42 34.13-14.17 1.44-1.44 2.78-2.95 4-4.52a48.149 48.149 0 0 0 10.14-29.62zM68.38 73.86H51.86v-1.65c0-2.8.3-5.09.94-6.85.64-1.77 1.59-3.35 2.85-4.81 1.27-1.45 4.11-4 8.51-7.66 2.34-1.92 3.52-3.67 3.52-5.25 0-1.61-.48-2.84-1.41-3.73-.94-.88-2.37-1.33-4.3-1.33-2.07 0-3.76.69-5.1 2.04-1.35 1.36-2.21 3.75-2.58 7.14l-16.89-2.1c.58-6.2 2.84-11.2 6.76-14.98C48.1 30.89 54.12 29 62.24 29c6.32 0 11.43 1.33 15.32 3.95 5.29 3.57 7.92 8.33 7.92 14.26 0 2.48-.69 4.86-2.04 7.15-1.36 2.3-4.15 5.09-8.36 8.39-2.92 2.34-4.77 4.19-5.54 5.6-.77 1.41-1.16 3.25-1.16 5.51zm-17.11 4.4h17.72v15.61H51.27V78.26zm71.58-16.83h.03v.01c0 14.19-4.82 27.27-12.92 37.68a62.403 62.403 0 0 1-5.08 5.76c-11.1 11.1-26.45 17.97-43.43 17.98v.03h-.04v-.03c-22.59-.01-42.34-12.22-52.99-30.4-5.33-9.1-8.39-19.7-8.39-31H0v-.04h.03C.03 44.44 6.9 29.09 18 18 29.09 6.9 44.45.03 61.43.03V0h.04v.03C78.44.04 93.79 6.9 104.88 18c11.1 11.09 17.97 26.45 17.97 43.43z"/>
</svg>