<svg 
	version="1.0" 
	xmlns="http://www.w3.org/2000/svg"
	viewBox="0 0 626 626">
  <path d="M283 1.4C244.4 5.9 213.3 14.3 181.5 29 156.9 40.3 127 59.7 107 77.5c-5.5 4.8-27.7 27.1-30.5 30.5-1.1 1.4-4.8 5.9-8.2 10.2-14.3 17.5-31.9 46.3-41 67-31.6 72.3-35.7 150.6-11.7 224.9 11.3 35.1 29.7 68.9 53.8 99.2 7.4 9.3 28.5 31.3 37.1 38.8 33.9 29.3 70.8 50.1 111.5 63 76.9 24.4 159 18.5 231.5-16.6 20.7-10 42.2-23.7 60.5-38.4 8.8-7 34.9-32.3 39.5-38.1 1.1-1.4 4.1-5 6.6-8 5.7-6.9 12.2-15.7 17.3-23.5 2.1-3.3 4.6-7.1 5.6-8.5.9-1.4 4.3-7.2 7.5-12.9 47.6-85.2 52.3-189.2 12.4-279.3-9.8-22.4-26.5-49.5-42.7-69.8-6.9-8.6-32-34.5-38.2-39.5-1.4-1.1-6.1-5-10.5-8.5-10.5-8.6-29.3-21.1-43-28.8-9.6-5.3-15.1-8-30-14.7-19.3-8.6-49.5-17-76.5-21.1-20.4-3.2-56.6-4.1-75-2zM336.8 52c50.8 5.4 92.2 21.3 131.7 50.5 13.9 10.3 19.3 15.1 32.9 28.9C548.5 179.5 575 245 575 313.1c0 55.6-17.7 109.7-50.4 153.9-42.7 57.8-101.1 93.3-172.6 105.1-19.5 3.2-57.3 3.3-77.2.1-51.4-8.1-96.1-28.8-133.3-61.6-48.5-42.7-77.8-96.3-87.7-160.1-3.2-21.3-3.2-53.4.1-75 4.5-29.7 11.7-52.6 25.2-80 29-58.8 85-108.3 146.9-129.7 19.7-6.8 45.8-12.3 66.5-14.1 9.3-.8 35.3-.6 44.3.3z"/>
  <path d="M298.7 96.4c-11.6 4.1-19.3 10.5-24.4 20.4-4.4 8.4-5.6 14-5.1 23.5.4 7 1 9.6 3.9 15.8 7.9 16.5 22 24.9 42 24.9 15.3 0 27.8-5.2 36.4-15.2 19.1-22.2 10.1-58.2-17.2-68.9-4.6-1.8-8.3-2.3-17.3-2.6-10.1-.2-12.3 0-18.3 2.1zm-31.9 120.3-27.8.3v51h33v34.7c0 19.2.3 60.1.7 91l.6 56.3h-10c-5.5 0-13.4.3-17.7.6l-7.6.7.2 24 .3 23.9 74.9-.1c41.2-.1 75.3-.4 75.8-.7.4-.3.8-11.3.8-24.5V450h-28.8l-.6-20.3c-.4-11.1-.8-63.6-.9-116.7l-.2-96.5H327c-17.9 0-45 .1-60.2.2z"/>
</svg>