<svg 
    fill="none" 
    xmlns="http://www.w3.org/2000/svg">
    <path d="M8.438 6.5h-.626a.321.321 0 0 0-.312.313V9H1.25V2.75h2.813a.321.321 0 0 0 .312-.313v-.624a.336.336 0 0 0-.313-.313H.938A.938.938 0 0 0 0 2.438v6.874c0 .528.41.938.938.938h6.875c.507 0 .937-.41.937-.938v-2.5a.336.336 0 0 0-.313-.312ZM9.53.25h-2.5c-.43 0-.644.508-.332.8l.684.704L2.637 6.52a.417.417 0 0 0-.157.332c0 .136.06.253.157.332l.43.43a.481.481 0 0 0 .331.156.417.417 0 0 0 .332-.157l4.766-4.746.703.684c.293.293.801.097.801-.332v-2.5A.475.475 0 0 0 9.531.25Z" fill="#424242"/>
</svg>