<svg 
	version="1.0"
	xmlns="http://www.w3.org/2000/svg" 
	viewBox="0 0 512 512">
  <path 
		d="M57 1.5C28 7.4 5.6 30.8 1.1 60 .2 65.6 0 117.4.2 260.5c.3 182.2.4 193.3 2.1 199 7.4 24.7 26.4 43.5 50.8 50.2 6 1.7 18.2 1.8 202.9 1.8 186.8 0 196.8-.1 203-1.8 24.8-6.9 43.7-25.8 50.7-50.7 1.7-6.2 1.8-15.6 1.8-203 0-184.7-.1-196.9-1.8-202.9-6.7-24.5-25.4-43.4-50.2-50.8-5.7-1.7-16.7-1.8-201-2C100.7.2 62.3.4 57 1.5zM446.5 29c19.4 2.8 34 17.7 36.5 37.5.6 4.4 1 16.8.8 27.5l-.3 19.5h-455L28.2 94c-.4-23.8.8-33.4 4.8-41.6 5.8-12 18.7-21.4 31.5-23.3 8.6-1.2 373.2-1.3 382-.1zM160 188.5V235l-65.8-.2-65.7-.3-.3-45c-.1-24.8 0-45.6.3-46.3.3-.9 14.5-1.2 66-1.2H160v46.5zm163.5 0v46h-135l-.3-45c-.1-24.8 0-45.6.3-46.3.3-1 14.4-1.2 67.7-1l67.3.3v46zm160 0v46l-65.7.3-65.8.2v-93l65.8.2 65.7.3v46zM160 313v50l-65.8-.2-65.7-.3-.3-48.5c-.1-26.7 0-49.1.3-49.8.3-.9 14.5-1.2 66-1.2H160v50zm163.5 0v49.5h-135l-.3-48.5c-.1-26.7 0-49.1.3-49.8.3-1 14.4-1.2 67.7-1l67.3.3V313zm160 0v49.5l-65.7.3-65.8.2V263l65.8.2 65.7.3V313zM160 437.5V484h-43.7c-24.1 0-46.9-.5-50.8-1-18.9-2.7-33.8-17.6-36.5-36.5-1.1-7.8-1.4-53.8-.3-54.8.3-.4 30-.7 66-.7H160v46.5zm163.5 0v46h-135l-.3-45c-.1-24.8 0-45.6.3-46.3.3-1 14.4-1.2 67.7-1l67.3.3v46zm160.3-23c.2 12.6-.2 26.6-.8 31-2.5 19.8-17.1 34.7-36.5 37.5-3.8.5-26.7 1-50.7 1H352v-93l65.8.2 65.7.3.3 23z"
	/>
</svg>