<svg xmlns="http://www.w3.org/2000/svg" version="1.0" viewBox="0 0 500 500">
  <defs/>
  <path d="M267.8 102.5C213.4 157 169 201.9 169 202.3c0 1.1 57.8 58.7 59 58.7.9 0 198-196.5 198-197.4 0-.3-13.4-13.9-29.7-30.3L366.5 3.5l-98.7 99zM75 48.3v42.3h155l.1-3.8V47.5 9l-.1-3H75v42.3z"/>
  <path d="M344.1 221.4l-29.4 29.4 5 5.9c12.2 14.3 18.4 26.9 21.8 44.5 4.4 23-.1 47.3-12.2 66.6-4.1 6.5-3.8 6.1-11 14.1-11.6 12.8-28.2 22.8-45.3 27.2-9.6 2.5-27.6 3.4-37.5 1.8-28.6-4.5-54-22.7-68.2-48.9-5.6-10.5-10.2-26.8-10.4-37.5-.1-3-.7-5.5-1.3-5.7-.6-.2-19.8-.4-42.6-.3l-41.5.1-.1 3.4c-.1 1.9.4 3.8 1 4.2.7.5.7.8-.3.8-1.1 0-1.1.3 0 1.7.8.9.9 1.4.3 1-.6-.3-1.1 0-1.1.8s.4 1.2.7 1c.4-.3.8.5.8 1.8 0 15.4 7.5 43.1 17.2 63.2 8.8 18.4 19.6 33.3 34.9 48.5 14.7 14.5 27.7 24 44.9 32.5 16.6 8.2 37.4 15.1 51.2 16.9 2.5.3 7 .9 10 1.3 9.8 1.3 38.6.6 46.6-1.1 1.2-.2 3.7-.7 5.5-1 19.5-3.3 42.7-12.4 61.6-24.2 37.9-23.8 65.7-61.6 77.3-105.1 1.1-4 2.3-9 2.6-11.1.3-2 .7-4.3.9-5 .3-.7.7-4 1.1-7.5.9-8.5.8-8.1 1.9-8.9.6-.5.5-.8-.3-.8-.7 0-1-.5-.7-1 .4-.6.8-2.2 1.1-3.6.3-1.8.1-2.3-.7-1.8-.9.5-.9.3-.3-.7 1.1-1.8 1.3-12.8.2-13.5-.4-.3-.4-1.4.2-2.4.6-1.2.6-2.1.1-2.5-.6-.3-.9-1.3-.9-2.3.1-1.9-1.1-12-1.7-14.2-.2-.8-.7-3.1-1-5-2.9-17.5-13.4-43.7-24-60.2-8.1-12.5-24-31.8-26.3-31.8-.4 0-13.9 13.2-30.1 29.4z"/>
</svg>
