<svg xmlns="http://www.w3.org/2000/svg" xml:space="preserve" style="enable-background:new 0 0 1921 300;" viewBox="0 0 1921 300">
  <path d="M192.6 203.7c-30.4 0-53.9-14.7-53.9-41.4 0-26 23.6-41.1 52.2-41.1 30.5 0 53 16.6 53 44.1v3.9h-72.3c1.6 10.3 8.6 15.9 20.8 15.9 8.4 0 14-2.7 17.2-8.2l31.7 1.7c-7.6 17.7-27.1 25.1-48.7 25.1zm-20.9-49.9h38.1c-1.5-9.5-7.7-14.1-18.8-14.1-10.9 0-17.3 4.6-19.3 14.1zm175.4-30.2-31.7 37.1 35.9 40.3h-37.2l-11.6-14.5-6.3-7.8c-2.2 2.8-4.5 5.5-6.6 8.2l-11 14.1h-37.9l35.6-40.8-31.4-36.6h36.8l7.8 11c2.1 2.9 4.2 5.9 6.4 9l6.3-8.8 7.8-11.1h37.1zm74.8-2.8c24.9 0 43.5 14.2 43.5 41.7 0 26.1-17.4 41.7-44.4 41.7-13 0-22.6-3.8-29.2-11.1v38.5h-33v-108h30.1l.9 9.5c7.5-8.3 18.3-12.3 32.1-12.3zm-9.9 61c11.9 0 20.1-4.8 20.1-20 0-14.7-8.2-20.1-20.1-20.1-12.8 0-21 6.9-21 20.1 0 13.5 8.2 20 21 20zm112.7 21.9c-30.4 0-53.8-14.7-53.8-41.4 0-26 23.5-41.1 52.2-41.1 30.5 0 53 16.6 53 44.1v3.9h-72.3c1.6 10.3 8.6 15.9 20.9 15.9 8.4 0 14-2.7 17.2-8.2l31.6 1.7c-7.7 17.7-27.2 25.1-48.8 25.1zm-20.9-49.9h38.1c-1.5-9.5-7.6-14.1-18.8-14.1-10.9 0-17.3 4.6-19.3 14.1zm140.3-32.9c3.5 0 6.6.1 10.2.9v25c-3.6-.8-7.1-1-10.5-1-15.5 0-24.9 6.9-25.2 19.8V201h-33v-77.4h30.6l1 12.8c4.6-7.2 13-15.5 26.9-15.5zm37.1-5.1c-9.5 0-16.5-6.8-16.5-16.6 0-9.3 7-16.2 16.5-16.2s16.5 6.9 16.5 16.2c0 9.8-7 16.6-16.5 16.6zm16.5 85.2h-33v-77.4h33V201zm63.1 2.7c-30.5 0-53.9-14.7-53.9-41.4 0-26 23.5-41.1 52.2-41.1 30.5 0 53 16.6 53 44.1v3.9h-72.3c1.6 10.3 8.5 15.9 20.8 15.9 8.4 0 14-2.7 17.2-8.2l31.7 1.7c-7.6 17.7-27.1 25.1-48.7 25.1zm-20.9-49.9H778c-1.5-9.5-7.7-14.1-18.8-14.1-10.9 0-17.3 4.6-19.3 14.1zM854.7 201h-33v-77.4h30.9l1.2 10.7c6.8-8.4 16.7-12.8 29.7-12.8 19.7 0 35 9.8 35 28.2V201h-33v-45.2c0-7.6-5.1-12.3-13.5-12.3-9.9 0-17.2 5.9-17.2 16.2V201zm125.8 3.2c-32.1 0-52.3-16.7-52.3-41.7s20.5-41.6 53.7-41.6c30.1 0 47.7 13.6 50.1 32.4l-32.1 1.7c-1.1-9.3-8.4-14.4-17.7-14.4-12.8 0-20.7 7-20.7 21.9 0 14.8 8.1 21.9 20.4 21.9 9.8 0 16.2-4.2 17.8-14.7l32.1 1.5c-3.3 19.9-20.9 33-51.3 33zm110.6-.5c-30.4 0-53.8-14.7-53.8-41.4 0-26 23.5-41.1 52.2-41.1 30.5 0 53 16.6 53 44.1v3.9h-72.3c1.7 10.3 8.6 15.9 20.8 15.9 8.4 0 14-2.7 17.2-8.2l31.7 1.7c-7.7 17.7-27.2 25.1-48.8 25.1zm-20.8-49.9h38.1c-1.5-9.5-7.7-14.1-18.8-14.1-10.9 0-17.4 4.6-19.3 14.1zm95.6 49.3c-9.9 0-17.6-7.8-17.6-17.4 0-9.5 7.7-17.5 17.6-17.5 9.8 0 17.7 8.1 17.7 17.5 0 9.6-8 17.4-17.7 17.4zm62.1-2.1h-33v-77.4h31.1l.8 9.9c6.8-8.1 16.3-12.1 28.5-12.1 13.8 0 23.1 4.5 28.8 13.2 7.2-8.7 17.9-13.2 31.2-13.2 19.7 0 34.3 10.1 34.3 28.8V201h-33v-46.2c0-7.8-5.6-12-12.4-12-8.6 0-15.5 6.3-15.5 15.5V201h-33v-46.2c0-6.8-5.1-12-12-12-9.2 0-15.8 6.2-15.8 15.5V201zm184.8 2.8c-28.5 0-53.2-14.8-53.2-41.1 0-27.2 24.8-41.7 53.2-41.7 29.1 0 53.2 15.2 53.2 41.7 0 26.3-25 41.1-53.2 41.1zm-.2-21.4c11.1 0 20.1-9 20.1-20 0-10.8-9-20-20.1-20s-19.8 9.2-19.8 20c0 11 8.7 20 19.8 20zm96.3 18.6h-33v-77.4h30.9l1.2 10.7c6.8-8.4 16.6-12.8 29.7-12.8 19.7 0 34.9 9.8 34.9 28.2V201h-33v-45.2c0-7.6-5.1-12.3-13.5-12.3-9.9 0-17.2 5.9-17.2 16.2V201zm177.2-77.4-37.8 31.2 41.1 46.2h-40.2l-16.2-20.8-7.1-9.3-7.9 6V201h-33V94.2h33v39.1l-.3 16.4 13.7-12.9 15-13.2h39.7zm45.9 80.6c-31.2 0-44.8-10.2-46.9-26.4l31.3-.8c1.3 6.2 5.6 9.5 17.1 9.5 11 0 15.9-2.7 15.9-7.4 0-4.2-3.8-6-10.5-6.6l-17.7-1.7c-23.6-2.2-33.8-10.2-33.8-23.8 0-15.9 13.6-26.2 44.2-26.2 27.6 0 42.6 8.4 45.3 24l-30.6.8c-1.2-5.4-5.1-7.8-15.9-7.8-8.5 0-13.8 2.1-13.8 6.1 0 3.8 3.4 5.6 11.2 6.3l17.2 1.5c24.6 2.1 34.8 10.9 34.8 24.3.2 19.8-17.4 28.2-47.8 28.2z" style="fill:#000"/>
</svg>
