<?xml version="1.0" standalone="no"?>
<!DOCTYPE svg PUBLIC "-//W3C//DTD SVG 20010904//EN"
 "http://www.w3.org/TR/2001/REC-SVG-20010904/DTD/svg10.dtd">
<svg version="1.0" xmlns="http://www.w3.org/2000/svg"
 width="623.000000pt" height="623.000000pt" viewBox="0 0 623.000000 623.000000"
 preserveAspectRatio="xMidYMid meet">
<metadata>
Created by potrace 1.14, written by Peter Selinger 2001-2017
</metadata>
<g transform="translate(0.000000,623.000000) scale(0.100000,-0.100000)"
fill="#000000" stroke="none">
<path d="M30 5254 c0 -4 280 -335 300 -354 3 -3 30 -34 60 -70 30 -36 57 -67
60 -70 5 -5 98 -114 135 -159 11 -13 25 -29 30 -35 6 -6 55 -63 109 -126 87
-102 120 -140 217 -253 l24 -27 933 2 933 3 -391 548 -391 547 -1009 0 c-556
0 -1010 -3 -1010 -6z"/>
<path d="M3764 5194 c-33 -37 -70 -79 -84 -94 -14 -15 -54 -60 -90 -100 -36
-41 -69 -78 -75 -84 -5 -6 -46 -52 -90 -101 -44 -50 -84 -95 -90 -101 -5 -6
-37 -41 -70 -79 -33 -37 -69 -77 -80 -89 -11 -12 -54 -60 -95 -106 -41 -46
-84 -94 -95 -106 -11 -12 -35 -39 -54 -60 -19 -22 -55 -62 -80 -89 -25 -28
-76 -84 -112 -125 -79 -90 -137 -154 -164 -184 -11 -12 -51 -58 -90 -101 -38
-43 -93 -104 -121 -134 -28 -31 -66 -74 -85 -96 -19 -21 -41 -46 -49 -55 -20
-21 -154 -169 -177 -196 -10 -12 -47 -54 -83 -94 -36 -40 -72 -81 -80 -90 -8
-9 -49 -54 -90 -100 -41 -46 -82 -91 -90 -100 -34 -39 -147 -165 -169 -189
-43 -48 -149 -166 -170 -190 -19 -22 -144 -162 -166 -185 -5 -6 -44 -49 -85
-96 -41 -46 -82 -91 -90 -100 -8 -9 -49 -54 -90 -100 -41 -47 -97 -110 -125
-140 -27 -31 -81 -91 -120 -134 -38 -44 -77 -86 -85 -95 -15 -15 -143 -159
-205 -230 -16 -19 -39 -44 -50 -55 -11 -12 -54 -60 -95 -106 -41 -47 -79 -90
-85 -96 -5 -6 -41 -46 -80 -89 -38 -43 -76 -84 -82 -91 -7 -7 -13 -16 -13 -21
0 -4 469 -8 1042 -7 l1041 1 35 39 c52 58 85 96 207 234 60 69 126 143 145
164 19 21 40 44 45 50 6 6 42 47 80 91 63 72 99 113 160 179 17 19 67 76 148
170 10 12 35 39 55 61 20 22 66 74 102 115 36 41 74 84 85 96 11 11 45 49 75
84 30 35 62 71 70 80 46 53 148 167 165 186 11 12 33 37 49 55 27 31 211 239
278 314 14 16 35 39 45 51 10 12 47 54 83 94 36 40 72 80 80 90 41 46 121 138
140 160 12 14 38 43 58 65 20 22 68 76 107 120 38 44 72 82 75 85 3 3 37 41
75 85 39 44 79 89 90 101 11 12 45 50 76 85 52 59 161 183 300 339 32 36 66
74 76 86 17 20 137 155 158 178 6 6 41 47 80 91 38 44 72 82 75 85 3 3 37 41
75 85 75 86 118 134 150 169 11 12 47 53 80 90 33 37 69 78 80 90 94 104 161
181 168 192 7 12 -152 14 -1016 14 l-1025 0 -58 -66z"/>
<path d="M3197 2208 c118 -149 269 -338 281 -353 10 -11 78 -97 152 -190 74
-93 142 -179 152 -190 9 -11 54 -67 99 -125 46 -58 89 -112 96 -120 7 -8 45
-55 84 -105 39 -49 81 -101 94 -115 l24 -25 1003 2 c552 1 1011 2 1021 2 16 1
-78 116 -213 261 -13 14 -97 109 -150 170 -8 9 -44 50 -80 90 -36 40 -72 81
-80 90 -8 9 -44 50 -80 90 -36 40 -73 82 -83 94 -10 12 -31 35 -46 51 -61 67
-130 145 -191 215 -36 41 -85 96 -109 122 l-44 48 -970 0 c-774 0 -967 -3
-960 -12z"/>
</g>
</svg>
