<?xml version="1.0" standalone="no"?>
<!DOCTYPE svg PUBLIC "-//W3C//DTD SVG 20010904//EN"
 "http://www.w3.org/TR/2001/REC-SVG-20010904/DTD/svg10.dtd">
<svg version="1.0" xmlns="http://www.w3.org/2000/svg"
 width="500.000000pt" height="500.000000pt" viewBox="0 0 500.000000 500.000000"
 preserveAspectRatio="xMidYMid meet">
<metadata>
Created by potrace 1.11, written by Peter Selinger 2001-2013
</metadata>
<g transform="translate(0.000000,500.000000) scale(0.100000,-0.100000)"
fill="#000000" stroke="none">
<path d="M2678 3975 c-544 -545 -988 -994 -988 -998 0 -11 578 -587 590 -587
9 0 1980 1965 1980 1974 0 3 -134 139 -297 303 l-298 298 -987 -990z"/>
<path d="M750 4517 l0 -423 775 0 775 0 1 38 c0 21 0 198 0 393 0 195 0 369 0
385 l-1 30 -775 0 -775 0 0 -423z"/>
<path d="M3441 2786 l-294 -294 50 -59 c122 -143 184 -269 218 -445 44 -230
-1 -473 -122 -666 -41 -65 -38 -61 -110 -141 -116 -128 -282 -228 -453 -272
-96 -25 -276 -34 -375 -18 -286 45 -540 227 -682 489 -56 105 -102 268 -104
375 -1 30 -7 55 -13 57 -6 2 -198 4 -426 3 l-415 -1 -1 -34 c-1 -19 4 -38 10
-42 7 -5 7 -8 -3 -8 -11 0 -11 -3 0 -17 8 -9 9 -14 3 -10 -6 3 -11 0 -11 -8 0
-8 4 -12 7 -10 4 3 8 -5 8 -18 0 -154 75 -431 172 -632 88 -184 196 -333 349
-485 147 -145 277 -240 449 -325 166 -82 374 -151 512 -169 25 -3 70 -9 100
-13 98 -13 386 -6 466 11 12 2 37 7 55 10 195 33 427 124 616 242 379 238 657
616 773 1051 11 40 23 90 26 111 3 20 7 43 9 50 3 7 7 40 11 75 9 85 8 81 19
89 6 5 5 8 -3 8 -7 0 -10 5 -7 10 4 6 8 22 11 36 3 18 1 23 -7 18 -9 -5 -9 -3
-3 7 11 18 13 128 2 135 -4 3 -4 14 2 24 6 12 6 21 1 25 -6 3 -9 13 -9 23 1
19 -11 120 -17 142 -2 8 -7 31 -10 50 -29 175 -134 437 -240 602 -81 125 -240
318 -263 318 -4 0 -139 -132 -301 -294z"/>
</g>
</svg>
